# xmcd
#
# Track frame offsets:
#	150
#	15727
#	31417
#	50520
#	72807
#	88397
#	118104
#	131455
#	151242
#	172215
#	186672
#	200920
#
# Disc length: 3032 seconds
#
# Revision: 3
# Processed by: cddbd v1.4PL0 Copyright (c) Steve Scherf et al.
# Submitted via: audiograbber 1.82.02
#
DISCID=b40bd60c
DTITLE=Caetano Veloso and Adriana Calcanhoto - Grandes Encontros JB FM
DYEAR=1900
DGENRE=MPB
TTITLE0=Vamos comer Caetano
TTITLE1=Nao Enche
TTITLE2=Vambora
TTITLE3=Voce e linda
TTITLE4=Metade
TTITLE5=Terra
TTITLE6=Mentiras
TTITLE7=Queixa
TTITLE8=Inverno
TTITLE9=Qualquer coisa
TTITLE10=Esquadros
TTITLE11=Fora de ordem
EXTD=
EXTT0=
EXTT1=
EXTT2=
EXTT3=
EXTT4=
EXTT5=
EXTT6=
EXTT7=
EXTT8=
EXTT9=
EXTT10=
EXTT11=
PLAYORDER=
